<svg version="1.2" xmlns="http://www.w3.org/2000/svg" viewBox="0 0 173 28" width="173" height="28">
	<title>logo — копия</title>
	<style>
		tspan { white-space:pre } 
		.s0 { fill: #274760 } 
		.t1 { font-size: 26px;fill: #284464;font-weight: 700;font-family: "Montserrat-Bold", "Montserrat" } 
		.t2 { font-size: 9px;fill: #284464;font-weight: 500;font-family: "Montserrat-Medium", "Montserrat" } 
	</style>
	<path class="s0" d="m13.2 0q-0.1 0-0.2 0.1c0 0-5.6 2.7-12.6 3.6-0.2 0.1-0.4 0.3-0.4 0.5v9.8c0 6 3.3 9.6 6.6 11.5 3.2 2 6.5 2.5 6.5 2.5q0.1 0 0.1 0c0 0 3.3-0.5 6.6-2.5 3.2-1.9 6.6-5.5 6.6-11.5v-9.8c0-0.2-0.2-0.4-0.5-0.5-6.9-0.9-12.5-3.6-12.5-3.6q-0.1-0.1-0.2-0.1zm0 5.6c4.6 0 8.4 3.8 8.4 8.4 0 4.6-3.8 8.4-8.4 8.4-4.7 0-8.5-3.8-8.5-8.4 0-4.6 3.8-8.4 8.5-8.4zm-1.9 4.2v2.3h-2.4c-0.2 0-0.4 0.2-0.4 0.5v2.8c0 0.3 0.2 0.5 0.4 0.5h2.4v2.3c0 0.3 0.2 0.5 0.5 0.5h2.8c0.2 0 0.5-0.2 0.5-0.5v-2.3h2.3c0.3 0 0.5-0.2 0.5-0.5v-2.8c0-0.3-0.2-0.5-0.5-0.5h-2.3v-2.3c0-0.3-0.3-0.5-0.5-0.5h-2.9c-0.2 0.1-0.4 0.3-0.4 0.5z"/>
	<text id="АкАю" style="transform: matrix(1,0,0,1,34,0)" >
		<tspan x="0" y="19.3" class="t1">А</tspan><tspan  y="19.3" class="t1">к</tspan><tspan  y="19.3" class="t1">А</tspan><tspan  y="19.3" class="t1">ю</tspan><tspan  y="19.3" class="t1">
</tspan>
	</text>
	<text id="Text layer 2" style="transform: matrix(1,0,0,1,34,20)" >
		<tspan x="0" y="6.7" class="t2">многопрофильная-клиника 
</tspan>
	</text>
</svg>